<svg xmlns="http://www.w3.org/2000/svg" width="22.47" height="27.98" viewBox="0 0 22.47 27.98">
  <path id="angle-double-down-solid" d="M9.992,70.758.445,61.211a1.678,1.678,0,0,1,0-2.38l1.586-1.586a1.678,1.678,0,0,1,2.38,0l6.767,6.767,6.767-6.767a1.678,1.678,0,0,1,2.38,0l1.6,1.579a1.678,1.678,0,0,1,0,2.38l-9.547,9.547a1.68,1.68,0,0,1-2.387.007Zm2.387,13.478,9.547-9.547a1.678,1.678,0,0,0,0-2.38l-1.586-1.586a1.678,1.678,0,0,0-2.38,0l-6.774,6.76L4.418,70.716a1.678,1.678,0,0,0-2.38,0L.445,72.3a1.678,1.678,0,0,0,0,2.38l9.547,9.547A1.68,1.68,0,0,0,12.379,84.236Z" transform="translate(0.05 -56.75)" fill="#fff"/>
</svg>
